2.5Hzhigh3min_grf.mot
version=1
nRows=15
nColumns 19
inDegrees=yes
endheader
time	1_ground_force_vx	1_ground_force_vy	1_ground_force_vz	1_ground_force_px	1_ground_force_py	1_ground_force_pz	1_ground_torque_x	1_ground_torque_y	1_ground_torque_z	2_ground_force_vx	2_ground_force_vy	2_ground_force_vz	2_ground_force_px	2_ground_force_py	2_ground_force_pz	2_ground_torque_x	2_ground_torque_y	2_ground_torque_z
            2.502500	           -0.136846	           -0.001206	            0.275477	           -0.233013	            0.005581	           -0.255695	            0.025666	           -0.046024	           -0.062520	            0.279585	            0.370818	           -0.421158	           -0.232311	            0.006130	           -0.833667	           -0.131497	           -0.000475	            0.000056
            2.503000	            0.000569	           -0.000983	            0.229280	           -0.233013	            0.005581	           -0.255695	            0.008721	           -0.027237	           -0.112927	            0.236743	           -0.734409	           -0.378153	           -0.232311	            0.006130	           -0.833667	           -0.187990	            0.037133	            0.000215
            2.503500	            0.138392	           -0.361881	            0.319104	           -0.233013	            0.005581	           -0.255695	            0.061649	           -0.009157	            0.005685	            0.097523	           -1.103213	           -0.379407	           -0.232311	            0.006130	           -0.833667	           -0.169205	            0.037200	            0.000207
            2.504000	            0.000033	           -0.180266	           -0.000773	           -0.233013	            0.005581	           -0.255695	            0.150348	           -0.046269	            0.018233	            0.185200	            0.554795	           -0.467390	           -0.232311	            0.006130	           -0.833667	           -0.056390	            0.009249	            0.000058
            2.504500	           -0.000051	            0.901132	            0.049721	           -0.233013	            0.005581	           -0.255695	            0.053687	            0.009417	           -0.037721	            0.187297	            0.001513	           -0.234720	           -0.232311	            0.006130	           -0.833667	           -0.131547	           -0.000071	           -0.113045
            2.505000	            0.091716	            1.081219	            0.096122	           -0.233013	            0.005581	           -0.255695	            0.051637	           -0.055244	           -0.034090	            0.094179	           -0.182304	           -0.423050	           -0.232311	            0.006130	           -0.833667	           -0.093805	           -0.056383	           -0.188664
            2.505500	            0.138377	           -0.902481	            0.270929	           -0.233013	            0.005581	           -0.255695	            0.007588	            0.000155	           -0.012920	            0.001165	           -0.366958	           -0.376739	           -0.232311	            0.006130	           -0.833667	           -0.056433	            0.018769	           -0.018759
            2.506000	            0.138374	            0.358985	            0.368052	           -0.233013	            0.005581	           -0.255695	            0.040220	            0.018974	           -0.088158	           -0.235682	            0.368288	           -0.233227	           -0.232311	            0.006130	           -0.833667	           -0.225601	            0.028149	           -0.169455
            2.506500	           -0.136909	           -0.902141	            0.179900	           -0.233013	            0.005581	           -0.255695	            0.067592	            0.037333	           -0.099830	            0.234708	           -0.181629	           -0.470038	           -0.232311	            0.006130	           -0.833667	           -0.187920	           -0.000140	           -0.150722
            2.507000	           -0.136322	           -1.623990	            0.360232	           -0.233013	            0.005581	           -0.255695	            0.041521	           -0.027450	           -0.081220	            0.282202	           -0.365441	           -0.517643	           -0.232311	            0.006130	           -0.833667	           -0.056482	            0.019173	           -0.131860
            2.507500	            0.092043	            0.540028	            0.185515	           -0.233013	            0.005581	           -0.255695	            0.085651	            0.018633	           -0.015041	            0.139097	            0.369808	           -0.280314	           -0.232311	            0.006130	           -0.833667	           -0.131574	            0.018498	           -0.018727
            2.508000	            0.001042	           -0.722636	            0.363755	           -0.233013	            0.005581	           -0.255695	            0.003452	            0.009499	           -0.056337	            0.096173	           -0.734749	           -0.425021	           -0.232311	            0.006130	           -0.833667	           -0.168931	           -0.047605	           -0.075498
            2.508500	            0.000863	           -0.361908	            0.319445	           -0.233013	            0.005581	           -0.255695	            0.117804	            0.028006	           -0.056554	           -0.094570	            0.185484	           -0.468584	           -0.232311	            0.006130	           -0.833667	           -0.075020	           -0.047131	           -0.113238
            2.509000	            0.092028	           -0.000572	            0.137340	           -0.233013	            0.005581	           -0.255695	            0.069277	            0.009223	            0.022575	            0.001809	           -0.550939	           -0.424324	           -0.232311	            0.006130	           -0.833667	           -0.150392	            0.018699	           -0.094120
            2.509500	            0.275642	            0.539671	            0.276772	           -0.233013	            0.005581	           -0.255695	            0.025454	           -0.036752	           -0.007310	            0.145079	           -1.287527	           -0.286228	           -0.232311	            0.006130	           -0.833667	           -0.188050	            0.055971	            0.019132
